<?xml version="1.0" encoding="UTF-8"?>
<!DOCTYPE svg PUBLIC "-//W3C//DTD SVG 1.1//EN" "http://www.w3.org/Graphics/SVG/1.1/DTD/svg11.dtd">
<svg xmlns="http://www.w3.org/2000/svg" version="1.1" width="46px" height="46px" style="shape-rendering:geometricPrecision; text-rendering:geometricPrecision; image-rendering:optimizeQuality; fill-rule:evenodd; clip-rule:evenodd" xmlns:xlink="http://www.w3.org/1999/xlink">
<g><path style="opacity:1" fill="#5dd08c" d="M 27.5,2.5 C 22.7971,2.43718 18.1304,2.77052 13.5,3.5C 16.0169,2.02695 18.8502,1.36029 22,1.5C 24.0326,1.50558 25.866,1.83891 27.5,2.5 Z"/></g>
<g><path style="opacity:1" fill="#a0eec7" d="M 11.5,4.5 C 10.7377,6.26242 9.40435,7.26242 7.5,7.5C 8.26231,5.73758 9.59565,4.73758 11.5,4.5 Z"/></g>
<g><path style="opacity:1" fill="#0dc556" d="M 27.5,2.5 C 28.9587,2.43255 30.2921,2.76589 31.5,3.5C 31.1667,6.5 32.5,7.83333 35.5,7.5C 35.719,8.67504 35.3857,9.67504 34.5,10.5C 32.5675,9.47978 30.5675,9.31312 28.5,10C 29.056,10.3826 29.3893,10.8826 29.5,11.5C 26.7309,11.1997 24.2309,10.1997 22,8.5C 20.0208,10.5946 17.8541,10.9279 15.5,9.5C 16.9355,7.91704 18.6022,6.41704 20.5,5C 19.6667,4.83333 18.8333,4.66667 18,4.5C 14.9185,6.29115 11.7518,7.95782 8.5,9.5C 8.16667,9.5 7.83333,9.5 7.5,9.5C 7.5,8.83333 7.5,8.16667 7.5,7.5C 9.40435,7.26242 10.7377,6.26242 11.5,4.5C 11.8417,3.66175 12.5084,3.32842 13.5,3.5C 18.1304,2.77052 22.7971,2.43718 27.5,2.5 Z"/></g>
<g><path style="opacity:1" fill="#a9f4ce" d="M 37.5,7.5 C 38.9063,7.97306 39.573,8.97306 39.5,10.5C 38.0937,10.0269 37.427,9.02694 37.5,7.5 Z"/></g>
<g><path style="opacity:1" fill="#01c951" d="M 29.5,11.5 C 28.791,12.404 27.791,12.7373 26.5,12.5C 25.9556,14.5795 25.1223,16.5795 24,18.5C 23.5357,17.9056 23.369,17.2389 23.5,16.5C 21.5629,15.5118 19.5629,14.5118 17.5,13.5C 15.4968,14.8579 13.4968,16.1913 11.5,17.5C 11.1667,17.5 10.8333,17.5 10.5,17.5C 10.3893,16.8826 10.056,16.3826 9.5,16C 11.0441,15.7104 12.3774,15.0437 13.5,14C 12.9056,13.5357 12.2389,13.369 11.5,13.5C 11.8333,11.1667 13.1667,9.83333 15.5,9.5C 17.8541,10.9279 20.0208,10.5946 22,8.5C 24.2309,10.1997 26.7309,11.1997 29.5,11.5 Z"/></g>
<g><path style="opacity:1" fill="#03c74f" d="M 15.5,9.5 C 13.1667,9.83333 11.8333,11.1667 11.5,13.5C 10.325,13.719 9.32496,13.3857 8.5,12.5C 9.79141,11.4728 9.79141,10.4728 8.5,9.5C 11.7518,7.95782 14.9185,6.29115 18,4.5C 18.8333,4.66667 19.6667,4.83333 20.5,5C 18.6022,6.41704 16.9355,7.91704 15.5,9.5 Z"/></g>
<g><path style="opacity:1" fill="#2ec465" d="M 31.5,3.5 C 33.8816,4.3507 35.8816,5.68403 37.5,7.5C 37.427,9.02694 38.0937,10.0269 39.5,10.5C 39.5,11.1667 39.5,11.8333 39.5,12.5C 38.1751,11.0474 37.3418,11.3808 37,13.5C 36.4803,16.4927 35.8136,19.4927 35,22.5C 34.4806,21.4844 33.6473,20.8178 32.5,20.5C 31.1508,20.8457 29.8175,21.179 28.5,21.5C 30.4611,19.0365 32.6278,16.7032 35,14.5C 35.5628,13.2752 35.2295,12.2752 34,11.5C 29.3314,15.3367 24.8314,19.3367 20.5,23.5C 20.7061,20.7616 21.7061,18.4282 23.5,16.5C 23.369,17.2389 23.5357,17.9056 24,18.5C 25.1223,16.5795 25.9556,14.5795 26.5,12.5C 27.791,12.7373 28.791,12.404 29.5,11.5C 29.3893,10.8826 29.056,10.3826 28.5,10C 30.5675,9.31312 32.5675,9.47978 34.5,10.5C 35.3857,9.67504 35.719,8.67504 35.5,7.5C 32.5,7.83333 31.1667,6.5 31.5,3.5 Z"/></g>
<g><path style="opacity:0.392" fill="#aff9d6" d="M 39.5,10.5 C 40.9063,10.9731 41.573,11.9731 41.5,13.5C 41.1667,13.5 40.8333,13.5 40.5,13.5C 40.5,12.8333 40.1667,12.5 39.5,12.5C 39.5,11.8333 39.5,11.1667 39.5,10.5 Z"/></g>
<g><path style="opacity:1" fill="#02c753" d="M 7.5,9.5 C 7.83333,9.5 8.16667,9.5 8.5,9.5C 9.79141,10.4728 9.79141,11.4728 8.5,12.5C 9.32496,13.3857 10.325,13.719 11.5,13.5C 12.2389,13.369 12.9056,13.5357 13.5,14C 12.3774,15.0437 11.0441,15.7104 9.5,16C 10.056,16.3826 10.3893,16.8826 10.5,17.5C 9.5,17.5 8.5,17.5 7.5,17.5C 7.5,20.1667 7.5,22.8333 7.5,25.5C 6.5,25.5 5.5,25.5 4.5,25.5C 3.83154,19.7504 4.83154,14.417 7.5,9.5 Z"/></g>
<g><path style="opacity:1" fill="#0ac553" d="M 23.5,16.5 C 21.7061,18.4282 20.7061,20.7616 20.5,23.5C 20.5,24.1667 20.1667,24.5 19.5,24.5C 18.1667,24.1667 16.8333,23.8333 15.5,23.5C 15.4431,22.391 15.1098,21.391 14.5,20.5C 13.9002,19.1001 12.9002,18.1001 11.5,17.5C 13.4968,16.1913 15.4968,14.8579 17.5,13.5C 19.5629,14.5118 21.5629,15.5118 23.5,16.5 Z"/></g>
<g><path style="opacity:1" fill="#64cf8c" d="M 7.5,7.5 C 7.5,8.16667 7.5,8.83333 7.5,9.5C 4.83154,14.417 3.83154,19.7504 4.5,25.5C 4.99255,27.8056 5.32588,30.139 5.5,32.5C -0.0964598,23.7223 0.570207,15.389 7.5,7.5 Z"/></g>
<g><path style="opacity:1" fill="#97deb5" d="M 12.5,20.5 C 13.1667,20.5 13.8333,20.5 14.5,20.5C 15.1098,21.391 15.4431,22.391 15.5,23.5C 14.1667,22.8333 13.1667,21.8333 12.5,20.5 Z"/></g>
<g><path style="opacity:0.039" fill="#c9f7e2" d="M 41.5,14.5 C 43.4815,17.3726 43.8149,20.3726 42.5,23.5C 42.2962,20.4824 41.9629,17.4824 41.5,14.5 Z"/></g>
<g><path style="opacity:0.224" fill="#ccfce3" d="M 12.5,20.5 C 11.1667,20.5 10.5,21.1667 10.5,22.5C 9.59603,21.791 9.26269,20.791 9.5,19.5C 10.791,19.2627 11.791,19.596 12.5,20.5 Z"/></g>
<g><path style="opacity:1" fill="#aaf0c8" d="M 10.5,22.5 C 13.2427,24.2393 15.2427,26.5726 16.5,29.5C 13.7573,27.7607 11.7573,25.4274 10.5,22.5 Z"/></g>
<g><path style="opacity:1" fill="#06c754" d="M 39.5,12.5 C 40.1667,12.5 40.5,12.8333 40.5,13.5C 40.8205,18.6946 40.4872,23.6946 39.5,28.5C 39.2895,25.0296 38.1229,25.0296 36,28.5C 34.676,26.1724 33.3426,23.8391 32,21.5C 30.1335,22.5266 28.3002,23.5266 26.5,24.5C 26.5,24.1667 26.5,23.8333 26.5,23.5C 26.8333,22.5 27.5,21.8333 28.5,21.5C 29.8175,21.179 31.1508,20.8457 32.5,20.5C 33.6473,20.8178 34.4806,21.4844 35,22.5C 35.8136,19.4927 36.4803,16.4927 37,13.5C 37.3418,11.3808 38.1751,11.0474 39.5,12.5 Z"/></g>
<g><path style="opacity:1" fill="#25c461" d="M 10.5,17.5 C 10.8333,17.5 11.1667,17.5 11.5,17.5C 12.9002,18.1001 13.9002,19.1001 14.5,20.5C 13.8333,20.5 13.1667,20.5 12.5,20.5C 11.791,19.596 10.791,19.2627 9.5,19.5C 9.26269,20.791 9.59603,21.791 10.5,22.5C 11.7573,25.4274 13.7573,27.7607 16.5,29.5C 17.1499,29.8039 17.8165,30.1373 18.5,30.5C 20.1856,29.1431 21.8523,27.8098 23.5,26.5C 21.9513,31.9226 18.7846,32.9226 14,29.5C 13.6012,29.7284 13.4346,30.0618 13.5,30.5C 12.0527,29.3778 11.0527,27.8778 10.5,26C 8.17379,25.8151 6.84045,26.9818 6.5,29.5C 7.18687,31.1772 7.85353,32.8439 8.5,34.5C 7.60895,33.8902 6.60895,33.5569 5.5,33.5C 5.5,33.1667 5.5,32.8333 5.5,32.5C 5.32588,30.139 4.99255,27.8056 4.5,25.5C 5.5,25.5 6.5,25.5 7.5,25.5C 7.5,22.8333 7.5,20.1667 7.5,17.5C 8.5,17.5 9.5,17.5 10.5,17.5 Z"/></g>
<g><path style="opacity:0.565" fill="#80d7aa" d="M 15.5,23.5 C 16.8333,23.8333 18.1667,24.1667 19.5,24.5C 18.0013,26.8022 16.668,26.4689 15.5,23.5 Z"/></g>
<g><path style="opacity:1" fill="#a2ebc8" d="M 26.5,23.5 C 26.5,23.8333 26.5,24.1667 26.5,24.5C 25.609,25.1098 24.609,25.4431 23.5,25.5C 23.9731,24.0937 24.9731,23.427 26.5,23.5 Z"/></g>
<g><path style="opacity:1" fill="#40c271" d="M 40.5,13.5 C 40.8333,13.5 41.1667,13.5 41.5,13.5C 41.5,13.8333 41.5,14.1667 41.5,14.5C 41.9629,17.4824 42.2962,20.4824 42.5,23.5C 42.0751,28.35 40.0751,32.35 36.5,35.5C 36.615,33.0532 37.615,31.0532 39.5,29.5C 39.5,29.1667 39.5,28.8333 39.5,28.5C 40.4872,23.6946 40.8205,18.6946 40.5,13.5 Z"/></g>
<g><path style="opacity:1" fill="#02c850" d="M 39.5,28.5 C 39.5,28.8333 39.5,29.1667 39.5,29.5C 36.7284,30.3715 34.0618,30.3715 31.5,29.5C 31.6882,27.8967 31.1882,26.5634 30,25.5C 28.8516,29.5469 30.3516,31.5469 34.5,31.5C 34.5,32.5 34.5,33.5 34.5,34.5C 33.5,34.5 32.5,34.5 31.5,34.5C 29.7816,33.776 27.9483,33.1094 26,32.5C 25.5,31 25,29.5 24.5,28C 25.4295,26.9231 26.0962,25.7564 26.5,24.5C 28.3002,23.5266 30.1335,22.5266 32,21.5C 33.3426,23.8391 34.676,26.1724 36,28.5C 38.1229,25.0296 39.2895,25.0296 39.5,28.5 Z"/></g>
<g><path style="opacity:1" fill="#0bc457" d="M 39.5,29.5 C 37.615,31.0532 36.615,33.0532 36.5,35.5C 36.5,36.1667 36.1667,36.5 35.5,36.5C 33.8007,36.5271 32.4674,37.1938 31.5,38.5C 31.5,37.1667 31.5,35.8333 31.5,34.5C 32.5,34.5 33.5,34.5 34.5,34.5C 34.5,33.5 34.5,32.5 34.5,31.5C 30.3516,31.5469 28.8516,29.5469 30,25.5C 31.1882,26.5634 31.6882,27.8967 31.5,29.5C 34.0618,30.3715 36.7284,30.3715 39.5,29.5 Z"/></g>
<g><path style="opacity:1" fill="#03c752" d="M 13.5,30.5 C 13.8333,31.5 14.5,32.1667 15.5,32.5C 15.6309,33.3764 15.2975,34.0431 14.5,34.5C 13.4095,32.9852 12.0761,32.1519 10.5,32C 10.1667,32.3333 9.83333,32.6667 9.5,33C 10.3805,33.7083 11.0472,34.5416 11.5,35.5C 10.8333,35.5 10.1667,35.5 9.5,35.5C 9.5,34.8333 9.16667,34.5 8.5,34.5C 7.85353,32.8439 7.18687,31.1772 6.5,29.5C 6.84045,26.9818 8.17379,25.8151 10.5,26C 11.0527,27.8778 12.0527,29.3778 13.5,30.5 Z"/></g>
<g><path style="opacity:1" fill="#0bc556" d="M 26.5,24.5 C 26.0962,25.7564 25.4295,26.9231 24.5,28C 25,29.5 25.5,31 26,32.5C 27.9483,33.1094 29.7816,33.776 31.5,34.5C 31.5,35.8333 31.5,37.1667 31.5,38.5C 26.3078,40.0307 20.9745,40.6974 15.5,40.5C 15.1667,40.5 14.8333,40.5 14.5,40.5C 14.0269,39.0937 13.0269,38.427 11.5,38.5C 10.8333,37.5 10.1667,36.5 9.5,35.5C 10.1667,35.5 10.8333,35.5 11.5,35.5C 13.9243,36.9831 16.591,38.1498 19.5,39C 21.5675,39.6869 23.5675,39.5202 25.5,38.5C 26.7112,37.7261 26.7112,36.8928 25.5,36C 23.0995,35.8142 20.7662,35.3142 18.5,34.5C 19.0253,33.8076 19.6919,33.3076 20.5,33C 18.8659,32.5065 17.1992,32.3398 15.5,32.5C 14.5,32.1667 13.8333,31.5 13.5,30.5C 13.4346,30.0618 13.6012,29.7284 14,29.5C 18.7846,32.9226 21.9513,31.9226 23.5,26.5C 23.5,26.1667 23.5,25.8333 23.5,25.5C 24.609,25.4431 25.609,25.1098 26.5,24.5 Z"/></g>
<g><path style="opacity:1" fill="#98e4b6" d="M 5.5,33.5 C 6.60895,33.5569 7.60895,33.8902 8.5,34.5C 9.16667,34.5 9.5,34.8333 9.5,35.5C 10.1667,36.5 10.8333,37.5 11.5,38.5C 8.91083,37.5806 6.91083,35.914 5.5,33.5 Z"/></g>
<g><path style="opacity:1" fill="#02c750" d="M 15.5,32.5 C 17.1992,32.3398 18.8659,32.5065 20.5,33C 19.6919,33.3076 19.0253,33.8076 18.5,34.5C 20.7662,35.3142 23.0995,35.8142 25.5,36C 26.7112,36.8928 26.7112,37.7261 25.5,38.5C 23.5675,39.5202 21.5675,39.6869 19.5,39C 16.591,38.1498 13.9243,36.9831 11.5,35.5C 11.0472,34.5416 10.3805,33.7083 9.5,33C 9.83333,32.6667 10.1667,32.3333 10.5,32C 12.0761,32.1519 13.4095,32.9852 14.5,34.5C 15.2975,34.0431 15.6309,33.3764 15.5,32.5 Z"/></g>
<g><path style="opacity:0.137" fill="#c3f9dc" d="M 11.5,38.5 C 13.0269,38.427 14.0269,39.0937 14.5,40.5C 12.9731,40.573 11.9731,39.9063 11.5,38.5 Z"/></g>
<g><path style="opacity:1" fill="#81dba3" d="M 35.5,36.5 C 33.436,39.7059 30.436,41.5392 26.5,42C 22.5227,42.8794 18.8561,42.3794 15.5,40.5C 20.9745,40.6974 26.3078,40.0307 31.5,38.5C 32.4674,37.1938 33.8007,36.5271 35.5,36.5 Z"/></g>
</svg>
