<?xml version="1.0" encoding="UTF-8"?>
<!DOCTYPE svg PUBLIC "-//W3C//DTD SVG 1.1//EN" "http://www.w3.org/Graphics/SVG/1.1/DTD/svg11.dtd">
<svg xmlns="http://www.w3.org/2000/svg" version="1.1" width="46px" height="46px" style="shape-rendering:geometricPrecision; text-rendering:geometricPrecision; image-rendering:optimizeQuality; fill-rule:evenodd; clip-rule:evenodd" xmlns:xlink="http://www.w3.org/1999/xlink">
<g><path style="opacity:1" fill="#a5e1fa" d="M 11.5,5.5 C 10.8333,6.5 10.1667,7.5 9.5,8.5C 8.16667,9.5 6.83333,10.5 5.5,11.5C 6.5,8.5 8.5,6.5 11.5,5.5 Z"/></g>
<g><path style="opacity:1" fill="#49b6ed" d="M 38.5,11.5 C 37.1851,10.5244 35.8518,9.52435 34.5,8.5C 33.4376,9.42463 33.4376,10.4246 34.5,11.5C 33.5084,11.6716 32.8417,11.3382 32.5,10.5C 32.0269,9.09368 31.0269,8.42702 29.5,8.5C 22.3289,6.24288 15.9955,7.57622 10.5,12.5C 10.7678,10.901 10.4345,9.56764 9.5,8.5C 10.1667,7.5 10.8333,6.5 11.5,5.5C 12.6002,4.44153 13.9336,3.6082 15.5,3C 25.4409,0.324653 33.1076,3.15799 38.5,11.5 Z"/></g>
<g><path style="opacity:0.216" fill="#bbf4ff" d="M 29.5,8.5 C 31.0269,8.42702 32.0269,9.09368 32.5,10.5C 30.9731,10.573 29.9731,9.90632 29.5,8.5 Z"/></g>
<g><path style="opacity:1" fill="#2eaef0" d="M 38.5,11.5 C 40.2624,12.2623 41.2624,13.5956 41.5,15.5C 40.6909,17.2922 40.1909,19.2922 40,21.5C 39.6174,20.944 39.1174,20.6107 38.5,20.5C 37.4413,17.3821 36.1079,14.3821 34.5,11.5C 33.4376,10.4246 33.4376,9.42463 34.5,8.5C 35.8518,9.52435 37.1851,10.5244 38.5,11.5 Z"/></g>
<g><path style="opacity:0.275" fill="#c3f4ff" d="M 5.5,11.5 C 5.57298,13.0269 4.90632,14.0269 3.5,14.5C 3.42702,12.9731 4.09368,11.9731 5.5,11.5 Z"/></g>
<g><path style="opacity:0.024" fill="#b9f5ff" d="M 10.5,12.5 C 10.573,14.0269 9.90632,15.0269 8.5,15.5C 8.42702,13.9731 9.09368,12.9731 10.5,12.5 Z"/></g>
<g><path style="opacity:0.682" fill="#9fe0f7" d="M 28.5,11.5 C 30.1898,11.8564 31.1898,12.8564 31.5,14.5C 30.8333,14.1667 30.1667,13.8333 29.5,13.5C 29.1667,13.5 28.8333,13.5 28.5,13.5C 28.5,12.8333 28.5,12.1667 28.5,11.5 Z"/></g>
<g><path style="opacity:1" fill="#56afe0" d="M 28.5,11.5 C 28.5,12.1667 28.5,12.8333 28.5,13.5C 27.2921,12.7659 25.9587,12.4326 24.5,12.5C 23.7564,16.1185 23.423,19.7852 23.5,23.5C 21.7607,26.2427 19.4274,28.2427 16.5,29.5C 18.1271,27.3702 19.9604,25.3702 22,23.5C 22.4983,20.1832 22.665,16.8499 22.5,13.5C 22.5,12.1667 22.5,10.8333 22.5,9.5C 24.7857,9.59495 26.7857,10.2616 28.5,11.5 Z"/></g>
<g><path style="opacity:1" fill="#04affb" d="M 28.5,13.5 C 28.8333,13.5 29.1667,13.5 29.5,13.5C 31.3357,16.1826 32.3357,19.1826 32.5,22.5C 31.5,22.5 30.5,22.5 29.5,22.5C 29.5386,21.2438 29.0386,20.2438 28,19.5C 26.4728,21.221 25.4728,23.221 25,25.5C 24.7216,24.5842 24.2216,23.9175 23.5,23.5C 23.423,19.7852 23.7564,16.1185 24.5,12.5C 25.9587,12.4326 27.2921,12.7659 28.5,13.5 Z"/></g>
<g><path style="opacity:0.169" fill="#b5edf9" d="M 3.5,15.5 C 2.32518,19.1834 2.32518,22.85 3.5,26.5C 3.5,27.5 3.5,28.5 3.5,29.5C 0.833333,24.8333 0.833333,20.1667 3.5,15.5 Z"/></g>
<g><path style="opacity:1" fill="#31aeed" d="M 9.5,8.5 C 10.4345,9.56764 10.7678,10.901 10.5,12.5C 9.09368,12.9731 8.42702,13.9731 8.5,15.5C 8.73731,16.791 8.40397,17.791 7.5,18.5C 6.88258,18.6107 6.38258,18.944 6,19.5C 5.66667,22.1667 5.33333,24.8333 5,27.5C 4.61742,26.944 4.11742,26.6107 3.5,26.5C 2.32518,22.85 2.32518,19.1834 3.5,15.5C 3.5,15.1667 3.5,14.8333 3.5,14.5C 4.90632,14.0269 5.57298,13.0269 5.5,11.5C 6.83333,10.5 8.16667,9.5 9.5,8.5 Z"/></g>
<g><path style="opacity:0.06" fill="#bbecf9" d="M 41.5,15.5 C 44.1667,20.1667 44.1667,24.8333 41.5,29.5C 42.5132,24.8066 42.5132,20.1399 41.5,15.5 Z"/></g>
<g><path style="opacity:1" fill="#31b0f1" d="M 29.5,13.5 C 30.1667,13.8333 30.8333,14.1667 31.5,14.5C 35.2953,19.5999 35.462,24.9332 32,30.5C 26.9391,34.9558 21.4391,35.6224 15.5,32.5C 15.2627,31.209 15.596,30.209 16.5,29.5C 16.4142,30.4959 16.7476,31.3292 17.5,32C 22.0756,32.9501 25.0756,31.1167 26.5,26.5C 27.325,25.6143 28.325,25.281 29.5,25.5C 29.5,24.5 29.5,23.5 29.5,22.5C 30.5,22.5 31.5,22.5 32.5,22.5C 32.3357,19.1826 31.3357,16.1826 29.5,13.5 Z"/></g>
<g><path style="opacity:0.596" fill="#a7e9f9" d="M 22.5,13.5 C 22.665,16.8499 22.4983,20.1832 22,23.5C 19.9604,25.3702 18.1271,27.3702 16.5,29.5C 15.596,30.209 15.2627,31.209 15.5,32.5C 14.7109,32.2172 14.0442,31.7172 13.5,31C 15.628,27.8699 18.128,25.0366 21,22.5C 21.1805,19.3054 21.6805,16.3054 22.5,13.5 Z"/></g>
<g><path style="opacity:1" fill="#48b7ed" d="M 7.5,18.5 C 7.5,21.1667 7.5,23.8333 7.5,26.5C 7.02458,29.3126 8.02458,31.3126 10.5,32.5C 11.5,32.8333 12.1667,33.5 12.5,34.5C 13.344,36.7593 15.0107,37.7593 17.5,37.5C 19.099,37.2322 20.4324,37.5655 21.5,38.5C 19.1432,38.3367 16.8098,38.5034 14.5,39C 15.3805,39.7083 16.0472,40.5416 16.5,41.5C 16.1667,41.5 15.8333,41.5 15.5,41.5C 15.1667,41.5 14.8333,41.5 14.5,41.5C 14.0269,40.0937 13.0269,39.427 11.5,39.5C 7.69983,37.0374 5.03316,33.704 3.5,29.5C 3.5,28.5 3.5,27.5 3.5,26.5C 4.11742,26.6107 4.61742,26.944 5,27.5C 5.33333,24.8333 5.66667,22.1667 6,19.5C 6.38258,18.944 6.88258,18.6107 7.5,18.5 Z"/></g>
<g><path style="opacity:1" fill="#03adfd" d="M 29.5,22.5 C 29.5,23.5 29.5,24.5 29.5,25.5C 28.325,25.281 27.325,25.6143 26.5,26.5C 25.0756,31.1167 22.0756,32.9501 17.5,32C 16.7476,31.3292 16.4142,30.4959 16.5,29.5C 19.4274,28.2427 21.7607,26.2427 23.5,23.5C 24.2216,23.9175 24.7216,24.5842 25,25.5C 25.4728,23.221 26.4728,21.221 28,19.5C 29.0386,20.2438 29.5386,21.2438 29.5,22.5 Z"/></g>
<g><path style="opacity:1" fill="#96def2" d="M 7.5,26.5 C 8.49178,28.4561 9.49178,30.4561 10.5,32.5C 8.02458,31.3126 7.02458,29.3126 7.5,26.5 Z"/></g>
<g><path style="opacity:1" fill="#29ace9" d="M 41.5,15.5 C 42.5132,20.1399 42.5132,24.8066 41.5,29.5C 40.3263,30.5137 39.6596,31.847 39.5,33.5C 38.0937,33.9731 37.427,34.9731 37.5,36.5C 35.5168,36.8432 34.1834,36.1765 33.5,34.5C 36.7459,30.4311 38.4125,25.7644 38.5,20.5C 39.1174,20.6107 39.6174,20.944 40,21.5C 40.1909,19.2922 40.6909,17.2922 41.5,15.5 Z"/></g>
<g><path style="opacity:0.125" fill="#c1f5fe" d="M 41.5,29.5 C 41.7709,31.3797 41.1042,32.713 39.5,33.5C 39.6596,31.847 40.3263,30.5137 41.5,29.5 Z"/></g>
<g><path style="opacity:0.02" fill="#b8f3fe" d="M 39.5,33.5 C 39.573,35.0269 38.9063,36.0269 37.5,36.5C 37.427,34.9731 38.0937,33.9731 39.5,33.5 Z"/></g>
<g><path style="opacity:1" fill="#94dbf5" d="M 12.5,34.5 C 14.4341,35.1103 16.1007,36.1103 17.5,37.5C 15.0107,37.7593 13.344,36.7593 12.5,34.5 Z"/></g>
<g><path style="opacity:1" fill="#53bbec" d="M 33.5,34.5 C 34.1834,36.1765 35.5168,36.8432 37.5,36.5C 36.7377,38.2624 35.4044,39.2624 33.5,39.5C 32.5,39.5 31.5,39.5 30.5,39.5C 30.6309,38.6236 30.2975,37.9569 29.5,37.5C 27.9291,38.3094 26.2624,38.6427 24.5,38.5C 27.4572,37.1766 30.4572,35.8432 33.5,34.5 Z"/></g>
<g><path style="opacity:0.114" fill="#c1f4fd" d="M 11.5,39.5 C 13.0269,39.427 14.0269,40.0937 14.5,41.5C 12.9731,41.573 11.9731,40.9063 11.5,39.5 Z"/></g>
<g><path style="opacity:1" fill="#1aa8ec" d="M 30.5,39.5 C 26.1464,41.348 21.4797,42.0147 16.5,41.5C 16.0472,40.5416 15.3805,39.7083 14.5,39C 16.8098,38.5034 19.1432,38.3367 21.5,38.5C 22.5,38.5 23.5,38.5 24.5,38.5C 26.2624,38.6427 27.9291,38.3094 29.5,37.5C 30.2975,37.9569 30.6309,38.6236 30.5,39.5 Z"/></g>
<g><path style="opacity:1" fill="#94d0ec" d="M 30.5,39.5 C 31.5,39.5 32.5,39.5 33.5,39.5C 31.3811,41.7166 28.7145,43.05 25.5,43.5C 21.9407,44.1115 18.6074,43.4449 15.5,41.5C 15.8333,41.5 16.1667,41.5 16.5,41.5C 21.4797,42.0147 26.1464,41.348 30.5,39.5 Z"/></g>
</svg>
